# xmcd CD database file
#
# Track frame offsets:
#	187
#	19222
#	38485
#	58897
#	78347
#	97510
#	114880
#	132480
#	147270
#	167097
#
# Disc length: 2617 seconds
#
# Revision: 5
# Processed by: cddbd v1.5.1PL0 Copyright (c) Steve Scherf et al.
# Submitted via: CDex 1.51
#
DISCID=770a370a
DTITLE=Milli Vanilli - Girl You Know It's True
DYEAR=1989
DGENRE=Pop
TTITLE0=Girl You Know It's True
TTITLE1=Baby Don't Forget My Number
TTITLE2=More Than You'll Ever Know
TTITLE3=Blame It On the Rain
TTITLE4=Take It As It Comes
TTITLE5=It's Your Thing
TTITLE6=Dreams To Remember
TTITLE7=All Or Nothing
TTITLE8=I'm Gonna Miss You
TTITLE9=Girl You Know It's True (N.Y. Subway Extended Mix)
EXTD=dsr YEAR: 1989
EXTT0=
EXTT1=
EXTT2=
EXTT3=
EXTT4=
EXTT5=
EXTT6=
EXTT7=
EXTT8=
EXTT9=
PLAYORDER=
